<?xml version="1.0" encoding="iso-8859-1"?>
<!-- Generator: Adobe Illustrator 19.0.0, SVG Export Plug-In . SVG Version: 6.00 Build 0)  -->
<svg version="1.1" id="Capa_1" xmlns="http://www.w3.org/2000/svg" xmlns:xlink="http://www.w3.org/1999/xlink" x="0px" y="0px"
	 viewBox="0 0 468.293 468.293" style="enable-background:new 0 0 468.293 468.293;" xml:space="preserve">
<circle style="fill:#F7BE56;" cx="205.237" cy="295.992" r="172.3"/>
<path style="fill:#2F4859;" d="M377.516,295.995H205.219V123.697C300.4,123.697,377.516,200.813,377.516,295.995z"/>
<path style="fill:#FCD462;" d="M205.219,123.697v172.298H32.921C32.921,200.813,110.037,123.697,205.219,123.697z"/>
<path style="fill:#CE412D;" d="M205.219,295.995v172.298c-95.181,0-172.297-77.117-172.297-172.298H205.219z"/>
<path style="fill:#44C4A1;" d="M377.516,295.995c0,95.181-77.116,172.298-172.297,172.298V295.995H377.516z"/>
<path style="fill:#D5D6DB;" d="M205.219,244.315c-28.542,0-51.68,23.139-51.68,51.681c0,28.542,23.138,51.679,51.68,51.679
	c28.542,0,51.68-23.137,51.68-51.679C256.899,267.454,233.761,244.315,205.219,244.315z"/>
<path style="fill:#2F4859;" d="M428.081,7.29L428.081,7.29c-9.72-9.72-25.479-9.72-35.2,0.001l-38.298,38.298l35.199,35.199
	l38.298-38.298C437.801,32.769,437.801,17.01,428.081,7.29z"/>
<path style="fill:#D5D6DB;" d="M349.769,44.342l-84.291,84.291c-16.9,16.9-27.013,39.261-28.804,62.929l-13.9,13.9l7.136,7.136
	l13.901-13.901c23.668-1.792,46.027-11.904,62.927-28.804l84.291-84.291L349.769,44.342z"/>
<path style="fill:#64798A;" d="M340.322,35.489L340.322,35.489c-3.284,3.284-3.284,8.609,0,11.894l47.667,47.667
	c3.284,3.284,8.609,3.284,11.894,0l0,0c3.284-3.284,3.284-8.609,0-11.894l-47.667-47.667
	C348.931,32.204,343.606,32.204,340.322,35.489z"/>
<g>
</g>
<g>
</g>
<g>
</g>
<g>
</g>
<g>
</g>
<g>
</g>
<g>
</g>
<g>
</g>
<g>
</g>
<g>
</g>
<g>
</g>
<g>
</g>
<g>
</g>
<g>
</g>
<g>
</g>
</svg>